# AST/ASF file generated using VICON BodyLanguage
# -----------------------------------------------
:version 1.10
:name VICON
:units
  mass 1.0
  length 0.45
  angle deg
:documentation
   .ast/.asf automatically generated from VICON data using
   VICON BodyBuilder and BodyLanguage model FoxedUp or BRILLIANT.MOD
:root
   order TX TY TZ RX RY RZ
   axis XYZ
   position 0 0 0  
   orientation 0 0 0 
:bonedata
  begin
     id 1 
     name lhipjoint
     direction 0.602128 -0.715006 0.355257 
     length 2.21237 
     axis 0 0 0  XYZ
  end
  begin
     id 2 
     name lfemur
     direction 0.34202 -0.939693 0  
     length 6.71649  
     axis 0 0 20  XYZ
    dof rx ry rz
    limits (-160.0 20.0)
           (-70.0 70.0)
           (-60.0 70.0)
  end
  begin
     id 3 
     name ltibia
     direction 0.34202 -0.939693 0   
     length 6.97123   
     axis 0 0 20   XYZ
    dof rx
    limits (-10.0 170.0)
  end
  begin
     id 4 
     name lfoot
     direction 0.0655697 -0.180151 0.981451   
     length 1.80924   
     axis -90 7.62852e-016 20   XYZ
    dof rx rz
    limits (-45.0 90.0)
           (-70.0 20.0)
  end
  begin
     id 5 
     name ltoes
     direction 1.53545e-011 -4.21827e-011 1   
     length 0.916331   
     axis -90 7.62852e-016 20   XYZ
    dof rx
    limits (-90.0 20.0)
  end
  begin
     id 6 
     name rhipjoint
     direction -0.625414 -0.698792 0.347201   
     length 2.2637  
     axis 0 0 0  XYZ 
  end
  begin
     id 7 
     name rfemur
     direction -0.34202 -0.939693 0   
     length 7.07595   
     axis 0 0 -20   XYZ
    dof rx ry rz
    limits (-160.0 20.0)
           (-70.0 70.0)
           (-70.0 60.0)
  end
  begin
     id 8 
     name rtibia
     direction -0.34202 -0.939693 0   
     length 7.22924   
     axis 0 0 -20   XYZ
    dof rx
    limits (-10.0 170.0)
 end
 begin
     id 9 
     name rfoot
     direction -0.0766747 -0.210662 0.974547   
     length 1.98482  
     axis -90 -7.62852e-016 -20   XYZ
    dof rx rz
    limits (-45.0 90.0)
           (-20.0 70.0)
  end
  begin
     id 10 
     name rtoes
     direction -1.53532e-011 -4.21867e-011 1   
     length 0.999842   
     axis -90 -7.62852e-016 -20   XYZ
    dof rx
    limits (-90.0 20.0)
  end
  begin
     id 11 
     name lowerback
     direction -0.0224668 0.997354 -0.0691422   
     length 2.09945   
     axis 0 0 0   XYZ
    dof rx ry rz
    limits (-20.0 45.0)
           (-30.0 30.0)
           (-30.0 30.0)
  end
  begin
     id 12 
     name upperback
     direction 0.0134698 0.998451 -0.0539888   
     length 2.09758   
     axis 0 0 0   XYZ
    dof rx ry rz
    limits (-20.0 45.0)
           (-30.0 30.0)
           (-30.0 30.0)
  end
  begin
     id 13 
     name thorax
     direction 0.0241905 0.99948 -0.0213333   
     length 2.10428   
     axis 0 0 0   XYZ
    dof rx ry rz
    limits (-20.0 45.0)
           (-30.0 30.0)
           (-30.0 30.0)
  end
  begin
     id 14 
     name lowerneck
     direction -0.00866847 0.995978 0.0891737   
     length 1.3959   
     axis 0 0 0   XYZ
    dof rx ry rz
    limits (-20.0 45.0)
           (-30.0 30.0)
           (-30.0 30.0)
  end
  begin
     id 15 
     name upperneck
     direction 0.0680679 0.992203 0.104404   
     length 1.39452   
     axis 0 0 0   XYZ
    dof rx ry rz
    limits (-20.0 45.0)
           (-30.0 30.0)
           (-30.0 30.0)
  end
  begin
     id 16
     name head
     direction 0.0242216 0.999358 0.0264054  
     length 1.40433  
     axis 0 0 0   XYZ
    dof rx ry rz
    limits (-20.0 45.0)
           (-30.0 30.0)
           (-30.0 30.0)
  end
  begin
     id 17 
     name lclavicle
     direction 0.929368 0.362991 -0.0671771  
     length 3.04887  
     axis 0 0 0   XYZ
    dof ry rz
    limits (-20.0 10.0)
           (0.0 20.0)
  end
  begin
     id 18 
     name lhumerus
     direction 1 -4.48967e-011 -7.13741e-028   
     length 4.77195   
     axis -180 -30 -90   XYZ
    dof rx ry rz
    limits (-60.0 90.0)
           (-90.0 90.0)
           (-90.0 90.0)
  end
  begin
     id 19
     name lradius
     direction 1 -4.48977e-011 3.60404e-027   
     length 2.98444   
     axis -180 -30 -90   XYZ
    dof rx
    limits (-10.0 170.0)
  end
  begin
     id 20
     name lwrist
     direction 1 -4.48997e-011 7.54877e-027   
     length 1.49222   
     axis -7.18178e-015 90 90   XYZ
    dof ry
    limits (-180.0 0.0)
 end
  begin
     id 21 
     name lhand
     direction 1 -4.489e-011 1.51105e-026   
     length 0.992285   
     axis -9.63605e-015 90 90   XYZ
    dof rx rz
    limits (-90.0 90.0)
           (-45.0 45.0)
  end
  begin
     id 22 
     name lfingers
     direction 1 -4.48998e-011 3.01948e-026   
     length 0.800006   
     axis -1.92718e-014 90 90   XYZ
    dof rx
    limits (0.0 90.0)
  end
  begin
     id 23
     name lthumb
     direction 0.707107 -6.34881e-011 0.707107   
     length 1.14865   
     axis -90 45 -3.53137e-014   XYZ
    dof rx rz
    limits (-45.0 45.0)
           (-45.0 45.0)
  end
  begin
     id 24 
     name rclavicle
     direction -0.945672 0.324529 0.0196374   
     length 3.4236  
     axis 0 0 0   XYZ 
    dof ry rz
    limits (-10.0 20.0)
           (-20.0 0.0)
  end
  begin
     id 25 
     name rhumerus
     direction -1 -4.4896e-011 1.02757e-029  
     length 4.62052   
     axis -180 30 90   XYZ
    dof rx ry rz
    limits (-90.0 60.0)
           (-90.0 90.0)
           (-90.0 90.0)
  end
  begin
     id 26 
     name rradius
     direction -1 -4.48982e-011 3.85962e-027   
     length 2.95332   
     axis -180 30 90   XYZ
    dof rx
    limits (-10.0 170.0)
  end
  begin
     id 27 
     name rwrist
     direction -1 -4.48961e-011 7.55118e-027   
     length 1.47666   
     axis -7.18178e-015 -90 -90   XYZ
    dof ry
    limits (-180.0 0.0)
  end
  begin
     id 28
     name rhand
     direction -1 -4.48984e-011 1.50994e-026   
     length 0.990956   
     axis -9.63605e-015 -90 -90   XYZ
    dof rx rz
    limits (-90.0 90.0)
           (-45.0 45.0)
  end
  begin
     id 29
     name rfingers
     direction -1 -4.4892e-011 3.02158e-026   
     length 0.798934   
     axis -1.92718e-014 -90 -90   XYZ
    dof rx
    limits (0.0 90.0)
  end
  begin
     id 30
     name rthumb
     direction -0.707107 -6.34916e-011 0.707107   
     length 1.14711   
     axis -90 -45 3.53137e-014   XYZ
    dof rx rz
    limits (-45.0 45.0)
           (-45.0 45.0)
  end
:hierarchy
  begin
    root lhipjoint rhipjoint lowerback
    lhipjoint lfemur
    lfemur ltibia
    ltibia lfoot
    lfoot ltoes
    rhipjoint rfemur
    rfemur rtibia
    rtibia rfoot
    rfoot rtoes
    lowerback upperback
    upperback thorax
    thorax lowerneck lclavicle rclavicle
    lowerneck upperneck
    upperneck head
    lclavicle lhumerus
    lhumerus lradius
    lradius lwrist
    lwrist lhand lthumb
    lhand lfingers
    rclavicle rhumerus
    rhumerus rradius
    rradius rwrist
    rwrist rhand rthumb
    rhand rfingers
  end

#!OML:ASF H:\ManfredObstacles\Project 1\Capture day 1\Session 1\Male.ASF
:FULLY-SPECIFIED
:DEGREES
321
root 0.531145 19.3632 11.6095 -168.006 -5.63367 -179.878
lowerback -7.41337 -2.84844 -0.713303
upperback 2.12688 -3.92163 2.31057
thorax 6.59944 -2.02669 2.30173
lowerneck -1.15091 -2.51413 -5.91405
upperneck -4.99945 -2.67847 10.8726
head -1.15532 -1.24933 4.69323
rclavicle 1.26228e-014 -3.29983e-014
rhumerus -40.2394 -25.9235 -70.7339
rradius 27.8624
rwrist 34.3369
rhand -2.34075 -4.37141
rfingers 7.12502
rthumb 23.3465 -32.9756
lclavicle 1.26228e-014 -3.29983e-014
lhumerus -24.0653 10.4129 86.6438
lradius 18.843
lwrist -28.2383
lhand -9.18252 8.03911
lfingers 7.12502
lthumb 16.7707 37.3348
rfemur -33.1178 -4.89069 23.6317
rtibia 32.7036
rfoot -16.0015 4.54051
rtoes 11.0729
lfemur -8.16825 -5.53734 -19.4652
ltibia 21.7242
lfoot -12.0639 -6.27213
ltoes -4.01521
322
root 0.569329 19.3682 11.4822 -168.11 -5.38659 -179.882
lowerback -7.28406 -2.75539 -0.638985
upperback 2.09042 -3.80055 2.2809
thorax 6.4732 -1.96284 2.25229
lowerneck -1.14425 -2.51075 -5.92975
upperneck -4.77902 -2.71904 10.6493
head -1.0834 -1.27315 4.61084
rclavicle 1.82882e-014 -3.18055e-014
rhumerus -39.8341 -25.6249 -71.2791
rradius 28.2783
rwrist 34.0869
rhand -2.55901 -4.39007
rfingers 7.12502
rthumb 23.1371 -33.0207
lclavicle 1.82882e-014 -3.18055e-014
lhumerus -24.142 11.3584 86.1612
lradius 18.4551
lwrist -29.3269
lhand -9.1476 7.78921
lfingers 7.12502
lthumb 16.8044 37.082
rfemur -32.4426 -4.73927 23.784
rtibia 32.5575
rfoot -16.4056 4.63253
rtoes 12.1267
lfemur -9.24464 -5.86178 -19.3598
ltibia 24.9921
lfoot -11.6855 -5.8332
ltoes -3.84991
323
root 0.604453 19.3729 11.3584 -168.252 -5.03301 -179.77
lowerback -7.12858 -2.52167 -0.33278
upperback 2.07099 -3.50949 2.18943
thorax 6.32367 -1.8049 2.03069
lowerneck -1.08833 -2.54647 -5.86142
upperneck -4.61415 -2.80605 10.4132
head -1.03573 -1.32204 4.50885
rclavicle 1.98785e-016 7.95139e-016
rhumerus -39.5225 -25.5035 -71.8323
rradius 28.718
rwrist 33.5898
rhand -2.85737 -4.41172
rfingers 7.12502
rthumb 22.8508 -33.078
lclavicle 1.98785e-016 7.95139e-016
lhumerus -24.2041 11.9955 85.6702
lradius 18.2505
lwrist -30.2485
lhand -9.02084 7.74342
lfingers 7.12502
lthumb 16.9264 37.0258
rfemur -31.7288 -4.5924 24.0504
rtibia 32.4002
rfoot -16.6837 4.8594
rtoes 11.9313
lfemur -10.5918 -5.72876 -19.1786
ltibia 28.7759
lfoot -10.7742 -5.39733
ltoes -5.28377
324
root 0.640263 19.3811 11.2375 -168.359 -4.77197 -179.763
lowerback -7.0541 -2.346 -0.128334
upperback 2.08776 -3.28218 2.0499
thorax 6.26816 -1.68076 1.80235
lowerneck -1.16739 -2.52891 -5.77556
upperneck -4.36961 -2.81903 10.1747
head -0.945123 -1.32909 4.39959
rclavicle 1.40143e-014 -8.74653e-015
rhumerus -39.0441 -25.268 -72.5611
rradius 29.0481
rwrist 32.9186
rhand -3.10802 -4.49783
rfingers 7.12502
rthumb 22.6103 -33.1936
lclavicle 1.40143e-014 -8.74653e-015
lhumerus -24.1573 12.8294 85.0845
lradius 18.0518
lwrist -31.1511
lhand -8.94195 7.78285
lfingers 7.12502
lthumb 17.0023 37.0587
rfemur -31.0095 -4.56713 24.2044
rtibia 32.1649
rfoot -17.1068 5.06368
rtoes 10.8204
lfemur -12.3488 -5.46823 -19.0704
ltibia 33.0021
lfoot -9.19159 -5.05578
ltoes -6.17464
325
root 0.676965 19.3928 11.1231 -168.361 -4.72508 -179.811
lowerback -7.10155 -2.25252 -0.0229769
upperback 2.09274 -3.15907 1.95122
thorax 6.28405 -1.61264 1.65406
lowerneck -1.11961 -2.45977 -5.70131
upperneck -4.2766 -2.76136 9.82148
head -0.934502 -1.30555 4.25723
rclavicle 2.72335e-014 -1.55052e-014
rhumerus -38.5087 -24.6507 -73.3819
rradius 29.383
rwrist 32.0592
rhand -3.15348 -4.72197
rfingers 7.12502
rthumb 22.5667 -33.423
lclavicle 2.72335e-014 -1.55052e-014
lhumerus -24.0811 13.7647 84.5568
lradius 17.9285
lwrist -31.818
lhand -8.95711 7.79041
lfingers 7.12502
lthumb 16.9877 37.0676
rfemur -30.3856 -4.60305 24.297
rtibia 31.8311
rfoot -17.3374 5.25773
rtoes 12.651
lfemur -14.5813 -5.27094 -18.9494
ltibia 37.4966
lfoot -6.98108 -4.50218
ltoes -5.87831
326
root 0.714383 19.4006 11.0123 -168.408 -4.84161 -179.772
lowerback -7.11397 -2.16352 0.124395
upperback 2.11744 -3.05435 1.93186
thorax 6.30469 -1.55528 1.56365
lowerneck -0.852665 -2.42909 -5.7934
upperneck -4.36495 -2.7483 9.55915
head -1.01475 -1.30905 4.18793
rclavicle -1.68967e-015 -9.14409e-015
rhumerus -37.992 -23.7349 -74.1973
rradius 29.8172
rwrist 31.0239
rhand -3.0769 -4.89665
rfingers 7.12502
rthumb 22.6402 -33.5888
lclavicle -1.68967e-015 -9.14409e-015
lhumerus -23.968 14.2431 84.3151
lradius 17.9684
lwrist -31.7919
lhand -9.09781 7.83033
lfingers 7.12502
lthumb 16.8523 37.1191
rfemur -29.6463 -4.72298 24.4954
rtibia 31.4474
rfoot -17.6323 5.16989
rtoes 9.81992
lfemur -17.045 -5.08212 -18.7168
ltibia 42.101
lfoot -4.29234 -3.54098
ltoes -5.97777
